<svg width="51" height="51" viewBox="0 0 51 51" fill="none" xmlns="http://www.w3.org/2000/svg">
<path d="M34.9745 28.755L28.0504 24.5005C27.966 24.4486 27.869 24.4135 27.7711 24.3981L25.6033 24.0156C25.2023 23.9447 24.8084 24.2206 24.7377 24.6216C24.667 25.0227 24.9426 25.4165 25.3436 25.4872L27.3893 25.8482L34.1923 30.0283C34.5244 30.2324 34.9799 30.1333 35.2004 29.8126C35.4368 29.4683 35.33 28.9737 34.9745 28.755Z" fill="#0C35C3" fill-opacity="0.51"/>
<path d="M50.7523 28.9946C50.4704 28.6931 49.9976 28.6772 49.6961 28.9589L46.6671 31.7898L32.7877 18.0953L50.7172 1.29235C51.0182 1.01015 51.0336 0.537307 50.7515 0.236287C50.4694 -0.0647322 49.9964 -0.080072 49.6954 0.202022L31.1989 17.5362C30.8939 17.822 30.8876 18.3197 31.1851 18.6133L32.4128 19.8245L32.0209 20.1705L23.815 19.4639C23.6884 19.4531 23.5568 19.4749 23.4413 19.5283L16.9395 22.4895C16.9205 22.4846 16.9016 22.4799 16.882 22.4764L13.1421 21.8164L13.4445 21.0433C13.594 20.661 13.4072 20.2297 13.0261 20.0774L1.07139 15.2955C0.688094 15.142 0.253399 15.3286 0.1002 15.7118C-0.0530988 16.0949 0.13327 16.5298 0.516468 16.683L11.7826 21.1895L5.14342 38.1559L1.0433 36.7037C0.654227 36.566 0.227302 36.7695 0.0895418 37.1586C-0.048218 37.5476 0.155483 37.9746 0.544458 38.1124L5.32631 39.8059C5.70163 39.9389 6.12657 39.7444 6.2715 39.3738L7.38105 36.5383L10.2883 38.1675L9.9677 38.6873C9.05917 40.1598 9.51787 42.097 10.9905 43.0057C11.7692 43.4862 12.7359 43.6001 13.6061 43.3184C13.7457 44.2253 14.2786 45.0345 15.06 45.5166C15.8388 45.9971 16.8054 46.1111 17.6757 45.8294C17.8153 46.7362 18.348 47.5454 19.1295 48.0276C19.9106 48.5096 20.8722 48.623 21.7453 48.3412C21.8852 49.2477 22.4178 50.0565 23.199 50.5385C24.3345 51.2391 25.8374 51.1344 26.8609 50.2766C27.1188 50.0603 27.3409 49.8022 27.5176 49.5157L28.0273 48.6898L28.4469 48.9476C29.5839 49.6461 31.0864 49.5385 32.1083 48.6788C32.3659 48.4621 32.5874 48.2036 32.7636 47.9168C33.1138 47.3467 33.2588 46.7078 33.2205 46.0859C33.4578 46.143 33.7006 46.1736 33.9457 46.1736C35.0308 46.1736 36.0573 45.6014 36.6252 44.6772C36.9672 44.1204 37.1235 43.4856 37.0839 42.8466C37.3205 42.9034 37.5629 42.9338 37.8071 42.9338C38.8923 42.9338 39.9188 42.3616 40.4866 41.4374C40.829 40.8802 40.9852 40.245 40.9452 39.6055C41.1845 39.6625 41.4274 39.6923 41.6693 39.6923C42.7245 39.6923 43.7564 39.1609 44.3482 38.1978C45.254 36.7235 44.7916 34.7872 43.3173 33.8813L42.8053 33.5668L44.5225 31.7726L46.1287 33.3574C46.4104 33.6352 46.8747 33.6414 47.1636 33.3714L50.7168 30.0508C51.0181 29.769 51.0341 29.2961 50.7523 28.9946ZM14.0372 41.1982C13.5612 41.9694 12.5465 42.2097 11.7751 41.734C11.0037 41.258 10.7635 40.2433 11.2393 39.4719L15.4243 32.6894C15.8914 31.9324 16.8936 31.6849 17.6589 32.137C18.4508 32.6052 18.6694 33.6908 18.1939 34.4615L14.0372 41.1982ZM18.1066 43.7091C17.6308 44.4804 16.6159 44.7207 15.8447 44.2449C15.0826 43.7747 14.8379 42.7461 15.3089 41.9829L18.6567 36.5569C19.1238 35.7999 20.1261 35.5523 20.8914 36.0044C21.6833 36.4726 21.9018 37.5582 21.4263 38.3289L18.1066 43.7091ZM22.1764 46.2201C21.9457 46.5937 21.5834 46.8553 21.1562 46.9565C20.7288 47.0578 20.2878 46.9864 19.9142 46.7559C19.1523 46.2856 18.9075 45.2569 19.3785 44.4938L21.8895 40.4243C22.3565 39.6673 23.3589 39.4197 24.1241 39.8719C24.916 40.34 25.1345 41.4257 24.6591 42.1963L22.1764 46.2201ZM27.8916 46.064L26.2459 48.7311C25.7756 49.4931 24.747 49.7377 23.9837 49.2668C23.2218 48.7967 22.9772 47.7679 23.448 47.0048L25.122 44.2918C25.589 43.535 26.5914 43.2871 27.3566 43.7395C28.1485 44.2076 28.3671 45.2933 27.8916 46.064ZM41.5026 32.7663L37.799 30.4905C37.4555 30.2795 36.9823 30.3925 36.7713 30.736C36.5602 31.0794 36.6733 31.5527 37.0167 31.7637L42.5348 35.1543C43.307 35.6288 43.5492 36.643 43.0748 37.4153C42.6002 38.1875 41.5859 38.4297 40.8136 37.9553L34.8955 34.3187C34.544 34.1026 34.0838 34.2127 33.8679 34.5642C33.6519 34.9157 33.7618 35.3759 34.1133 35.5918L38.6734 38.3939C39.4363 38.8626 39.6829 39.8909 39.2134 40.6549C38.7447 41.4178 37.7164 41.6642 36.9524 41.1949L32.8198 38.6555C32.4682 38.4395 32.0081 38.5494 31.7921 38.901C31.5762 39.2525 31.686 39.7127 32.0376 39.9286L34.8121 41.6334C35.5749 42.1023 35.8215 43.1304 35.3521 43.8945C34.8833 44.6573 33.855 44.9039 33.091 44.4345C33.091 44.4345 30.651 42.9366 30.6282 42.9257C30.287 42.7609 29.8699 42.8782 29.6675 43.2077C29.4515 43.5592 29.5614 44.0194 29.9129 44.2353L30.9507 44.873C31.7229 45.3476 31.965 46.3618 31.4906 47.1341C31.0218 47.897 29.9936 48.1434 29.2296 47.6741L28.8124 47.4177L29.1637 46.8482C29.6129 46.1203 29.7522 45.2238 29.546 44.3886C29.3426 43.5645 28.8352 42.877 28.1175 42.4527C27.5575 42.1218 26.9311 41.9878 26.3211 42.0289C26.4356 41.5368 26.4362 41.0183 26.3135 40.5211C26.1101 39.6969 25.6027 39.0094 24.885 38.5852C24.325 38.2542 23.6986 38.1201 23.0886 38.1613C23.3966 36.8377 22.8295 35.4135 21.6525 34.7177C21.0925 34.3868 20.466 34.2527 19.856 34.2937C20.1641 32.9701 19.5969 31.546 18.42 30.8501C16.9588 29.9864 15.0448 30.4595 14.1533 31.9042L11.0744 36.8942L7.93089 35.1333L12.5864 23.2358L15.1213 23.6831C14.4003 24.5786 14.1976 25.8394 14.7056 26.9551C15.2314 28.1094 16.3735 28.7924 17.5662 28.7923C18.0006 28.7923 18.4418 28.7017 18.8622 28.5102L23.2379 26.5172C23.6084 26.3485 23.777 25.8982 23.6081 25.5276C23.4394 25.1572 22.989 24.9884 22.6185 25.1574L18.2428 27.1502C17.4181 27.526 16.4412 27.1605 16.0655 26.3356C15.6899 25.5108 16.0552 24.5341 16.8801 24.1584L23.882 20.9694L32.2112 21.6867C32.2326 21.6886 32.254 21.6895 32.2753 21.6895C32.4566 21.6895 32.6326 21.6234 32.7698 21.5025L33.4788 20.8764L43.4583 30.7227L41.5026 32.7663Z" fill="#0C35C3"/>
</svg>
