<svg width="33" height="33" viewBox="0 0 33 33" fill="none" xmlns="http://www.w3.org/2000/svg">
<path d="M27.8438 15.4688H7.27083L15.1485 7.96538C15.561 7.57248 15.577 6.91969 15.1841 6.50719C14.7917 6.09521 14.139 6.07871 13.7259 6.47162L4.72931 15.0413C4.34002 15.4311 4.125 15.9488 4.125 16.5C4.125 17.0507 4.34002 17.5689 4.74736 17.9757L13.7265 26.5279C13.926 26.7181 14.1818 26.8125 14.4375 26.8125C14.7098 26.8125 14.982 26.7053 15.1846 26.4923C15.5775 26.0798 15.5616 25.4275 15.1491 25.0346L7.23834 17.5313H27.8438C28.413 17.5313 28.875 17.0693 28.875 16.5C28.875 15.9308 28.413 15.4688 27.8438 15.4688Z" fill="#393939"/>
</svg>
