<svg width="51" height="51" viewBox="0 0 51 51" fill="none" xmlns="http://www.w3.org/2000/svg">
<path d="M50.2514 5.5892H35.2836L25.8771 0.102219C25.6439 -0.0337476 25.3559 -0.0337476 25.1228 0.102219L15.7164 5.5892H0.748564C0.335186 5.5892 0 5.92439 0 6.33777V9.53154C0 9.94492 0.335186 10.2801 0.748564 10.2801H2.39531V41.469C2.39531 41.8824 2.73049 42.2176 3.14387 42.2176H24.7515V49.5033H22.3063C21.8929 49.5033 21.5578 49.8385 21.5578 50.2519C21.5578 50.6652 21.8929 51.0004 22.3063 51.0004H28.6938C29.1073 51.0004 29.4423 50.6652 29.4423 50.2519C29.4423 49.8385 29.1073 49.5033 28.6938 49.5033H26.2486V42.2176H47.8562C48.2697 42.2176 48.6048 41.8824 48.6048 41.469V10.28H50.2515C50.665 10.28 51.0001 9.94482 51.0001 9.53144V6.33777C51 5.92439 50.6649 5.5892 50.2514 5.5892ZM25.5 1.61529L32.3125 5.5892H18.6875L25.5 1.61529ZM49.503 8.78298H41.8679C41.4544 8.78298 41.1193 9.11816 41.1193 9.53154C41.1193 9.94492 41.4544 10.2801 41.8679 10.2801H47.1077V40.7204H3.89234V10.28H38.408C38.8215 10.28 39.1565 9.94482 39.1565 9.53144C39.1565 9.11806 38.8215 8.78288 38.408 8.78288H1.49703V7.08633H49.5029V8.78298H49.503Z" fill="#0C35C3"/>
</svg>
