<svg width="13" height="13" viewBox="0 0 13 13" fill="none" xmlns="http://www.w3.org/2000/svg">
<g clip-path="url(#clip0)">
<path d="M8.37667 0.0750811C8.31706 0.0122987 8.23533 -0.0253906 8.15063 -0.0253906H3.07934C2.14356 -0.0253906 1.37112 0.743967 1.37112 1.67965V11.2695C1.37112 12.2053 2.14356 12.9746 3.07934 12.9746H9.96239C10.8982 12.9746 11.6706 12.2053 11.6706 11.2695V3.65477C11.6706 3.57314 11.6329 3.49469 11.5796 3.43498L8.37667 0.0750811ZM8.46772 1.08307L10.6124 3.33451H9.21823C8.80375 3.33451 8.46772 3.00165 8.46772 2.58717V1.08307ZM9.96239 12.3466H3.07934C2.49218 12.3466 1.99915 11.8599 1.99915 11.2695V1.67965C1.99915 1.09249 2.48901 0.602632 3.07934 0.602632H7.83969V2.58717C7.83969 3.35018 8.45522 3.96253 9.21823 3.96253H11.0426V11.2695C11.0426 11.8599 10.5527 12.3466 9.96239 12.3466Z" fill="#1F1E1E" fill-opacity="0.56"/>
<path d="M9.10512 10.18H3.93654C3.76386 10.18 3.62253 10.3212 3.62253 10.494C3.62253 10.6667 3.76386 10.808 3.93654 10.808H9.1083C9.28097 10.808 9.42231 10.6667 9.42231 10.494C9.42231 10.3212 9.28097 10.18 9.10512 10.18Z" fill="#1F1E1E" fill-opacity="0.56"/>
<path d="M6.29165 9.05269C6.35135 9.11548 6.43298 9.15317 6.52086 9.15317C6.60883 9.15317 6.69046 9.11548 6.75007 9.05269L8.5902 7.07758C8.70952 6.95191 8.70009 6.75097 8.57453 6.63483C8.44886 6.51551 8.24792 6.52483 8.13178 6.6505L6.83487 8.04153V4.6126C6.83487 4.43982 6.69353 4.29858 6.52086 4.29858C6.34818 4.29858 6.20685 4.43982 6.20685 4.6126V8.04153L4.91311 6.6505C4.79379 6.52493 4.59592 6.51551 4.47036 6.63483C4.34479 6.75414 4.33537 6.95201 4.45469 7.07758L6.29165 9.05269Z" fill="#1F1E1E" fill-opacity="0.56"/>
</g>
<defs>
<clipPath id="clip0">
<rect width="13" height="13" fill="white"/>
</clipPath>
</defs>
</svg>
