<svg width="17" height="17" viewBox="0 0 17 17" fill="none" xmlns="http://www.w3.org/2000/svg">
<g clip-path="url(#clip0)">
<path d="M16.7981 15.8239L9.47464 8.50039L16.7981 1.17696C17.0672 0.907848 17.0672 0.47146 16.7981 0.202316C16.529 -0.0668282 16.0926 -0.0668282 15.8234 0.202316L8.5 7.52575L1.1765 0.202316C0.90739 -0.0668282 0.471002 -0.0668282 0.201858 0.202316C-0.067286 0.471427 -0.067286 0.907815 0.201858 1.17696L7.52532 8.50039L0.201858 15.8239C-0.067286 16.093 -0.067286 16.5294 0.201858 16.7985C0.470969 17.0676 0.907357 17.0677 1.1765 16.7985L8.5 9.47503L15.8235 16.7985C16.0926 17.0676 16.529 17.0677 16.7981 16.7985C17.0673 16.5294 17.0673 16.093 16.7981 15.8239Z" fill="#1F1E1E" fill-opacity="0.56"/>
</g>
<defs>
<clipPath id="clip0">
<rect width="17" height="17" fill="white"/>
</clipPath>
</defs>
</svg>
