<svg width="28" height="28" viewBox="0 0 28 28" fill="none" xmlns="http://www.w3.org/2000/svg">
<path d="M1.09375 15.9414C0.489672 15.9414 0 15.4517 0 14.8477V7.68359C0 5.27122 1.96263 3.30859 4.375 3.30859H23.625C26.0374 3.30859 28 5.27122 28 7.68359V20.3164C28 22.7288 26.0374 24.6914 23.625 24.6914H4.375C1.96263 24.6914 0 22.7288 0 20.3164C0 19.7123 0.489672 19.2227 1.09375 19.2227C1.69783 19.2227 2.1875 19.7123 2.1875 20.3164C2.1875 21.5226 3.16881 22.5039 4.375 22.5039H23.625C24.8312 22.5039 25.8125 21.5226 25.8125 20.3164V7.91536L16.3103 13.8241C15.5977 14.2671 14.7989 14.4886 14 14.4886C13.2011 14.4886 12.4023 14.2671 11.6897 13.8241L2.1875 7.91536V14.8477C2.1875 15.4517 1.69783 15.9414 1.09375 15.9414ZM12.8449 11.9664C13.5574 12.4094 14.4426 12.4095 15.1551 11.9664L24.8998 5.90691C24.5406 5.64845 24.1003 5.49609 23.625 5.49609H4.375C3.89971 5.49609 3.45937 5.64851 3.10018 5.90696L12.8449 11.9664Z" fill="black"/>
</svg>
