<svg width="30" height="30" viewBox="0 0 30 30" fill="none" xmlns="http://www.w3.org/2000/svg">
<path d="M14.9646 0.682373C18.9568 0.682373 22.5652 2.28567 25.1814 4.88198C27.7976 7.47812 29.4137 11.0582 29.4137 15.0196C29.4137 18.9809 27.7976 22.5612 25.1814 25.1572C22.5652 27.7533 18.9568 29.3568 14.9646 29.3568C10.9724 29.3568 7.36421 27.7533 4.74802 25.1572C2.13182 22.5612 0.515686 18.9809 0.515686 15.0196C0.515686 11.0582 2.13182 7.47795 4.74802 4.88198C7.36421 2.28567 10.9724 0.682373 14.9646 0.682373ZM24.3893 5.67578C21.9732 3.28619 18.6448 1.80144 14.9646 1.80144C11.2846 1.80144 7.95621 3.28619 5.548 5.67578C3.13962 8.0652 1.64364 11.3678 1.64364 15.0196C1.64364 18.6715 3.13962 21.9738 5.548 24.3712C7.95621 26.7608 11.2846 28.2374 14.9646 28.2374C18.6448 28.2374 21.9732 26.7608 24.3893 24.3712C26.7975 21.9738 28.2856 18.6713 28.2856 15.0196C28.2856 11.3678 26.7975 8.0652 24.3893 5.67578Z" fill="#C4C4C4"/>
<path fill-rule="evenodd" clip-rule="evenodd" d="M16.0686 12.0901V10.9153C16.0686 10.3516 16.4446 10.2168 16.7168 10.2168C16.9807 10.2168 18.3728 10.2168 18.3728 10.2168V7.70801H16.0927C13.5566 7.70801 12.9885 9.56561 12.9885 10.7723V12.0901H11.5162V13.8604V15.0195H13.0043C13.0043 18.3459 13.0043 22.3391 13.0043 22.3391H15.9567C15.9567 22.3391 15.9567 18.2903 15.9567 15.0195H18.1408L18.237 13.8684L18.4131 12.0901H16.0686Z" fill="#C4C4C4"/>
</svg>
