<svg width="28" height="29" viewBox="0 0 28 29" fill="none" xmlns="http://www.w3.org/2000/svg">
<path d="M13.9523 0.494629C17.7187 0.494629 21.1303 2.0613 23.5908 4.5981C26.0591 7.13475 27.5838 10.633 27.5838 14.5036C27.5838 18.3743 26.0591 21.8727 23.5908 24.4091C21.1303 26.9458 17.7187 28.5126 13.9523 28.5126C10.1936 28.5126 6.78213 26.9458 4.31387 24.4091C1.84545 21.8727 0.320862 18.3743 0.320862 14.5036C0.320862 10.633 1.84545 7.13475 4.31371 4.5981C6.78213 2.0613 10.1936 0.494629 13.9523 0.494629ZM22.8437 5.37369C20.5641 3.03886 17.4243 1.5881 13.9522 1.5881C10.4878 1.5881 7.34027 3.03886 5.06855 5.37369C2.7965 7.70852 1.38517 10.9355 1.38517 14.5036C1.38517 18.0719 2.7965 21.2987 5.06871 23.6413C7.34043 25.9763 10.488 27.419 13.9523 27.419C17.4244 27.419 20.5643 25.9763 22.8438 23.6413C25.1157 21.2987 26.5195 18.0719 26.5195 14.5036C26.5195 10.9355 25.1157 7.70852 22.8437 5.37369Z" fill="#C4C4C4"/>
<path fill-rule="evenodd" clip-rule="evenodd" d="M10.4652 14.5036C10.4652 12.5256 12.0277 10.9121 13.9524 10.9121C15.8848 10.9121 17.4471 12.5256 17.4471 14.5036C17.4471 16.4893 15.8848 18.0952 13.9524 18.0952C12.0277 18.0952 10.4652 16.4893 10.4652 14.5036ZM17.5603 7.48364H10.3521C8.57835 7.48364 7.12146 8.97282 7.12146 10.8036V18.2116C7.12146 20.0341 8.57819 21.5314 10.3521 21.5314H17.5603C19.3416 21.5314 20.7906 20.0343 20.7906 18.2116V10.8036C20.7906 8.97282 19.3416 7.48364 17.5603 7.48364ZM10.3521 8.3138H17.5603C18.8964 8.3138 19.9832 9.43052 19.9832 10.8038V18.2117C19.9832 19.5845 18.8964 20.7014 17.5603 20.7014H10.3521C9.01585 20.7014 7.92908 19.5845 7.92908 18.2117V10.8038C7.92924 9.43052 9.01601 8.3138 10.3521 8.3138ZM18.2773 9.36078C17.8849 9.36078 17.5679 9.68657 17.5679 10.0897C17.5679 10.4932 17.8849 10.819 18.2773 10.819C18.6697 10.819 18.9869 10.4933 18.9869 10.0897C18.9869 9.68657 18.6697 9.36078 18.2773 9.36078ZM18.3602 14.5036C18.3602 12.0057 16.3905 9.97363 13.9524 9.97363C11.5218 9.97363 9.54447 12.0057 9.54447 14.5036C9.54447 17.0091 11.5218 19.0338 13.9524 19.0338C16.3903 19.0338 18.3602 17.0093 18.3602 14.5036Z" fill="#C4C4C4"/>
</svg>
