<svg width="46" height="46" viewBox="0 0 46 46" fill="none" xmlns="http://www.w3.org/2000/svg">
<path d="M45.9899 42.7541L43.2949 27.8941C43.2284 27.5272 42.877 27.2836 42.5101 27.3502C42.1432 27.4167 41.8998 27.7682 41.9663 28.135L43.1058 34.418L34.3207 24.2136L40.2293 22.8949L41.1042 23.3819L41.4841 25.4767C41.5506 25.8436 41.902 26.087 42.2689 26.0206C42.6358 25.9541 42.8792 25.6027 42.8128 25.2358L42.3758 22.8268C42.3398 22.6279 42.2165 22.4556 42.04 22.3574L40.6615 21.59C40.6615 21.59 40.6615 21.59 40.6614 21.59L36.3051 19.165H36.305L32.9438 17.294C32.9437 17.294 32.9436 17.2939 32.9436 17.2939C32.9433 17.2938 32.9431 17.2936 32.9429 17.2934C32.9169 17.279 32.8903 17.2666 32.8631 17.256C32.8546 17.2526 32.8458 17.2504 32.8371 17.2474C32.8182 17.2408 32.7991 17.2344 32.7798 17.2295C32.7688 17.2267 32.7578 17.225 32.7467 17.2229C32.7293 17.2195 32.7119 17.2161 32.6944 17.214C32.6825 17.2126 32.6707 17.2121 32.6588 17.2114C32.6418 17.2103 32.6248 17.2094 32.6078 17.2096C32.5957 17.2097 32.5837 17.2106 32.5715 17.2113C32.5548 17.2124 32.5381 17.2139 32.5214 17.2162C32.5093 17.218 32.4972 17.2201 32.4851 17.2225C32.4688 17.2258 32.4526 17.2295 32.4364 17.2339C32.4243 17.2373 32.4123 17.2409 32.4003 17.2448C32.3847 17.2501 32.3692 17.2561 32.3539 17.2626C32.342 17.2676 32.3302 17.2726 32.3185 17.2783C32.3133 17.2808 32.308 17.2825 32.303 17.2852L30.7606 18.0892C31.9081 15.9495 32.4877 13.8773 32.4877 11.8948C32.4877 6.68705 28.2509 2.45021 23.0431 2.45021C17.8353 2.45021 13.599 6.68705 13.599 11.8948C13.599 13.8965 14.1895 15.9898 15.3594 18.1515L13.6974 17.2852C13.6923 17.2825 13.6868 17.2807 13.6816 17.2781C13.6703 17.2726 13.6586 17.2677 13.6471 17.2629C13.6316 17.2563 13.6158 17.2502 13.5999 17.2448C13.5882 17.2409 13.5762 17.2374 13.5643 17.234C13.5481 17.2296 13.5318 17.2258 13.5155 17.2225C13.5034 17.2201 13.4911 17.218 13.4789 17.2162C13.4625 17.2139 13.446 17.2125 13.4294 17.2114C13.417 17.2106 13.4046 17.2098 13.3923 17.2096C13.3758 17.2094 13.3593 17.2103 13.3428 17.2113C13.3304 17.2121 13.318 17.2126 13.3056 17.2141C13.2888 17.2161 13.2722 17.2194 13.2556 17.2226C13.2438 17.225 13.2319 17.2267 13.2203 17.2296C13.2018 17.2343 13.1838 17.2405 13.1657 17.2467C13.1563 17.2499 13.1467 17.2525 13.1372 17.2561C13.1101 17.2668 13.0836 17.2792 13.0577 17.2935C13.0575 17.2936 13.0573 17.2938 13.057 17.294C13.0569 17.294 13.0569 17.294 13.0568 17.294L3.96083 22.3574C3.78419 22.4556 3.66093 22.6279 3.62499 22.8268L1.06293 36.9533C0.996443 37.3201 1.23992 37.6716 1.60684 37.7381C1.97385 37.8049 2.32514 37.5611 2.39162 37.1942L3.16023 32.9562L11.8985 28.337L11.1957 37.4106L1.56839 41.7334L1.90719 39.8647C1.97367 39.4979 1.73028 39.1465 1.36336 39.0799C0.996712 39.0136 0.645155 39.2569 0.578581 39.6238L0.0108604 42.7541C-0.0338816 43.0007 0.0617118 43.2518 0.259008 43.4062C0.380027 43.5009 0.526921 43.5497 0.675162 43.5497C0.768869 43.5497 0.863115 43.5302 0.951611 43.4905L11.8378 38.6026L22.7193 43.4884C22.7196 43.4885 22.7199 43.4887 22.7201 43.4888L22.7238 43.4904C22.7299 43.4932 22.7363 43.4951 22.7426 43.4977C22.7526 43.5018 22.7626 43.5057 22.7729 43.5094C22.7827 43.5129 22.7925 43.5164 22.8026 43.5194C22.8091 43.5214 22.8155 43.5231 22.822 43.5249C22.8305 43.5272 22.8388 43.5295 22.8474 43.5315C22.8615 43.5347 22.8756 43.5372 22.8898 43.5396C22.8965 43.5406 22.9031 43.5423 22.91 43.5432C22.9145 43.5438 22.9191 43.5444 22.9237 43.5449C22.9463 43.5476 22.9691 43.5489 22.9917 43.5492C22.9946 43.5492 22.9975 43.5497 23.0003 43.5497C23.0018 43.5497 23.0032 43.5494 23.0047 43.5494C23.032 43.5493 23.0591 43.547 23.0863 43.5435C23.0897 43.5431 23.0931 43.5432 23.0965 43.5427C23.1016 43.542 23.1066 43.5403 23.1118 43.5395C23.133 43.536 23.1541 43.5314 23.1749 43.5257C23.1807 43.5242 23.1865 43.5233 23.1923 43.5217C23.1929 43.5215 23.1934 43.5215 23.1941 43.5213C23.1959 43.5208 23.1976 43.5198 23.1995 43.5192C23.2258 43.5111 23.2516 43.5018 23.277 43.4904L34.1628 38.6025L45.0488 43.4903C45.0593 43.495 45.0701 43.4985 45.0809 43.5026C45.0915 43.5068 45.1019 43.5113 45.1128 43.5149C45.1269 43.5196 45.1414 43.5231 45.1557 43.5268C45.1646 43.5291 45.1733 43.532 45.1823 43.5339C45.1997 43.5377 45.2172 43.5401 45.2347 43.5425C45.241 43.5433 45.2471 43.5448 45.2534 43.5455C45.2774 43.5481 45.3014 43.5494 45.3254 43.5494H45.3254C45.3255 43.5494 45.3256 43.5494 45.3256 43.5494C45.3584 43.5494 45.3912 43.5461 45.4239 43.5414C45.4315 43.5403 45.439 43.5391 45.4466 43.5377C45.4788 43.5318 45.5108 43.5243 45.5424 43.5135C45.5444 43.5128 45.5464 43.5118 45.5483 43.5112C45.5692 43.5039 45.5899 43.4959 45.6102 43.4863C45.6162 43.4835 45.6213 43.4795 45.6271 43.4766C45.6441 43.468 45.6605 43.4582 45.6768 43.4481C45.6932 43.4381 45.7094 43.4281 45.7248 43.4166C45.7301 43.4127 45.736 43.4099 45.7413 43.4059C45.7532 43.3966 45.7635 43.3859 45.7747 43.3759C45.7836 43.3679 45.7928 43.3603 45.8013 43.352C45.8218 43.3317 45.8405 43.3102 45.8579 43.2878C45.8611 43.2836 45.865 43.2799 45.8682 43.2756C45.8883 43.2483 45.9061 43.2196 45.9218 43.1898C45.9262 43.1814 45.9296 43.1725 45.9337 43.1639C45.9441 43.142 45.9537 43.1199 45.9618 43.097C45.9658 43.0855 45.9691 43.0738 45.9725 43.0619C45.9786 43.0409 45.9837 43.0196 45.9878 42.998C45.9901 42.9856 45.9923 42.9731 45.9939 42.9605C45.9968 42.9376 45.9982 42.9143 45.9988 42.8911C45.9991 42.88 46 42.8691 45.9997 42.8578C45.9992 42.8235 45.9963 42.7887 45.9899 42.7541ZM34.1222 19.4953L33.4301 19.6572L33.3858 19.0853L34.1222 19.4953ZM32.6494 27.0625L29.8297 24.8608C29.6346 24.7086 29.3719 24.6751 29.1447 24.7739L23.6783 27.1531V26.4132C24.0867 26.0806 25.0147 25.2962 26.127 24.1706L32.2181 21.4947L32.6494 27.0625ZM32.0213 18.955L32.1076 20.0683L28.3025 21.74C28.6802 21.2717 29.0325 20.8058 29.3595 20.3425L32.0213 18.955ZM13.9794 18.955L16.7781 20.4139C17.1925 20.9967 17.6465 21.5837 18.1413 22.1746C18.5739 22.6912 19.005 23.1712 19.4198 23.6107L13.6824 22.7897L13.9794 18.955ZM12.0218 26.7444L3.46651 31.2668L3.8832 28.9691L3.89389 28.9099L12.1927 24.5362L12.0218 26.7444ZM12.3161 22.9449L4.20008 27.2223L4.89654 23.382L12.615 19.0854L12.421 21.5904L12.3161 22.9449ZM12.5477 37.4411L13.1869 29.1873L21.1623 41.3091L12.5477 37.4411ZM22.3252 34.8389L18.1661 28.2841L22.3252 28.7821V34.8389ZM22.3252 27.422L16.914 26.7741C16.6553 26.7437 16.4015 26.864 16.2625 27.0846C16.1236 27.3052 16.124 27.5861 16.2637 27.8064L22.3252 37.3592V40.62L13.3571 26.9894L13.5779 24.1389L21.0271 25.2048C21.5889 25.7261 22.0443 26.1133 22.3251 26.3444V27.422H22.3252ZM23.0437 25.1834C21.3387 23.7454 14.9494 17.9515 14.9494 11.8949C14.9493 7.43167 18.5804 3.80056 23.0437 3.80056C27.5069 3.80056 31.138 7.43167 31.138 11.8949C31.138 17.9515 24.7486 23.7455 23.0437 25.1834ZM23.6755 41.8313V38.8344L25.6939 40.9249L23.6755 41.8313ZM27.0033 40.337L23.6755 36.8902V28.6268L29.3152 26.1723L32.7904 28.8858L33.453 37.4411L27.0033 40.337ZM33.5355 21.0191L35.8763 20.4717L37.5365 21.3958L38.455 21.9072L33.6866 22.9714L33.5355 21.0191ZM34.8051 37.4106L34.2779 30.605L42.9514 41.0685L34.8051 37.4106ZM34.0973 28.2711L33.9138 25.9019L33.9061 25.8016L43.5813 37.0401L44.2017 40.4607L34.0973 28.2711Z" fill="black"/>
<path d="M23.0434 7.72204C22.6705 7.72204 22.3682 8.02427 22.3682 8.39721C22.3682 8.77015 22.6705 9.07239 23.0434 9.07239C24.5997 9.07239 25.8659 10.3385 25.8659 11.8949C25.8659 13.4512 24.5997 14.7174 23.0434 14.7174C21.487 14.7174 20.2209 13.4513 20.2209 11.8949C20.2209 11.1504 20.5082 10.4479 21.03 9.91673C21.2913 9.6508 21.2876 9.22332 21.0215 8.96206C20.7555 8.7007 20.328 8.70439 20.0668 8.9705C19.2954 9.75564 18.8706 10.7942 18.8706 11.8949C18.8706 14.1958 20.7425 16.0678 23.0435 16.0678C25.3445 16.0678 27.2163 14.1958 27.2163 11.8949C27.2162 9.59393 25.3444 7.72204 23.0434 7.72204Z" fill="black"/>
</svg>
