<svg width="55" height="55" viewBox="0 0 55 55" fill="none" xmlns="http://www.w3.org/2000/svg">
<g clip-path="url(#clip0)">
<path d="M48.7695 12.2639C51.0796 12.2639 52.959 10.3846 52.959 8.07446C52.959 5.76436 51.0796 3.88501 48.7695 3.88501C46.4594 3.88501 44.5801 5.76436 44.5801 8.07446C44.5801 10.3846 46.4594 12.2639 48.7695 12.2639ZM48.7695 5.49634C50.191 5.49634 51.3477 6.65295 51.3477 8.07446C51.3477 9.49598 50.191 10.6526 48.7695 10.6526C47.348 10.6526 46.1914 9.49598 46.1914 8.07446C46.1914 6.65295 47.348 5.49634 48.7695 5.49634Z" fill="#0C35C3" fill-opacity="0.51"/>
<path d="M48.7681 13.3739H48.7171C45.3253 13.3739 42.5658 16.1334 42.5658 19.5251V20.0061C42.5658 21.5222 43.7992 22.7557 45.3154 22.7557H52.1699C53.704 22.7557 55 21.4685 55 19.9447V19.515C55 16.1287 52.2045 13.3739 48.7681 13.3739ZM53.3887 19.9446C53.3887 20.5725 52.8077 21.1443 52.1699 21.1443H45.3154C44.6877 21.1443 44.1771 20.6337 44.1771 20.006V19.525C44.1771 17.0217 46.2138 14.9851 48.7171 14.9851H48.7681C51.316 14.9851 53.3887 17.0171 53.3887 19.5148V19.9446Z" fill="#0C35C3" fill-opacity="0.51"/>
<path d="M52.959 36.4338C52.959 34.1237 51.0796 32.2444 48.7695 32.2444C46.4594 32.2444 44.5801 34.1237 44.5801 36.4338C44.5801 38.7439 46.4594 40.6233 48.7695 40.6233C51.0796 40.6233 52.959 38.7439 52.959 36.4338ZM46.1914 36.4338C46.1914 35.0123 47.348 33.8557 48.7695 33.8557C50.191 33.8557 51.3477 35.0123 51.3477 36.4338C51.3477 37.8554 50.191 39.012 48.7695 39.012C47.348 39.012 46.1914 37.8554 46.1914 36.4338Z" fill="#0C35C3" fill-opacity="0.51"/>
<path d="M48.7681 41.7333H48.7171C45.3253 41.7333 42.5658 44.4927 42.5658 47.8845V48.3655C42.5658 49.8816 43.7992 51.1151 45.3154 51.1151H52.1699C53.704 51.1151 55 49.8278 55 48.3041V47.8744C55 44.4881 52.2045 41.7333 48.7681 41.7333ZM53.3887 48.304C53.3887 48.9318 52.8077 49.5036 52.1699 49.5036H45.3154C44.6877 49.5036 44.1771 48.9931 44.1771 48.3654V47.8844C44.1771 45.3811 46.2138 43.3445 48.7171 43.3445H48.7681C51.316 43.3445 53.3887 45.3765 53.3887 47.8742V48.304Z" fill="#0C35C3" fill-opacity="0.51"/>
<path d="M31.0986 7.14355H20.3564C14.9255 7.14355 9.81471 9.26449 5.96535 13.1157C2.119 16.9637 0.000966797 22.0707 0.000107422 27.4969C0.000107422 27.498 0 27.4989 0 27.5C0 27.5006 0.000107422 27.5013 0.000107422 27.5019C0.000107422 27.5047 0 27.5074 0 27.5102C0.00290039 33.4413 2.653 39.0799 7.27063 42.9801C7.6088 43.2662 8.11776 43.2257 8.40598 42.8845C8.69312 42.5445 8.65025 42.0363 8.31037 41.7492C4.26325 38.3309 1.8584 33.4677 1.63077 28.3057H10.7762C11.1869 33.2314 15.3264 37.1143 20.3564 37.1143H23.7402V46.2451H20.5255C17.309 46.2451 14.1181 45.4074 11.2977 43.8226C10.9099 43.6047 10.4185 43.7424 10.2007 44.1303C9.98271 44.5182 10.1204 45.0094 10.5083 45.2273C13.5692 46.9473 17.0331 47.8564 20.5255 47.8564H31.0986C31.5437 47.8564 31.9043 47.4958 31.9043 47.0508V36.3086C31.9043 35.8635 31.5437 35.5029 31.0986 35.5029H20.3564C15.9437 35.5029 12.3535 31.9128 12.3535 27.5C12.3535 25.5016 13.0941 23.5883 14.4386 22.1124C14.7383 21.7834 14.7145 21.2738 14.3856 20.9742C14.0568 20.6745 13.5472 20.6984 13.2475 21.0272C11.8136 22.601 10.9532 24.589 10.7773 26.6943H1.62927C1.82735 21.9991 3.75311 17.6082 7.10499 14.2547C10.6501 10.7081 15.3562 8.75488 20.3564 8.75488H23.7402V17.8857H20.3564C19.059 17.8857 17.7998 18.14 16.6139 18.6417C16.2042 18.8149 16.0123 19.2877 16.1858 19.6975C16.3591 20.1073 16.8318 20.299 17.2416 20.1256C18.2279 19.7085 19.2759 19.497 20.3564 19.497H31.0986C31.5437 19.497 31.9043 19.1363 31.9043 18.6913V7.94922C31.9043 7.50417 31.5437 7.14355 31.0986 7.14355ZM30.293 46.2451H25.3516V37.1143H30.293V46.2451ZM30.293 17.8857H25.3516V8.75488H30.293V17.8857Z" fill="#0C35C3"/>
<path d="M34.2139 8.75488H40.0146C40.4597 8.75488 40.8203 8.39427 40.8203 7.94922C40.8203 7.50417 40.4597 7.14355 40.0146 7.14355H34.2139C33.7688 7.14355 33.4082 7.50417 33.4082 7.94922C33.4082 8.39427 33.7688 8.75488 34.2139 8.75488Z" fill="#0C35C3" fill-opacity="0.51"/>
<path d="M33.623 18.6914C33.623 19.1365 33.9837 19.4971 34.4287 19.4971H38.9404C39.3855 19.4971 39.7461 19.1365 39.7461 18.6914C39.7461 18.2464 39.3855 17.8857 38.9404 17.8857H34.4287C33.9837 17.8857 33.623 18.2464 33.623 18.6914Z" fill="#0C35C3" fill-opacity="0.51"/>
<path d="M39.585 13.3203C39.585 13.7654 39.9456 14.126 40.3906 14.126H42.7002C43.1452 14.126 43.5059 13.7654 43.5059 13.3203C43.5059 12.8753 43.1452 12.5146 42.7002 12.5146H40.3906C39.9456 12.5146 39.585 12.8753 39.585 13.3203Z" fill="#0C35C3" fill-opacity="0.51"/>
<path d="M36.9531 14.126C37.3982 14.126 37.7588 13.7654 37.7588 13.3203C37.7588 12.8753 37.3982 12.5146 36.9531 12.5146H34.8584C34.4133 12.5146 34.0527 12.8753 34.0527 13.3203C34.0527 13.7654 34.4133 14.126 34.8584 14.126H36.9531Z" fill="#0C35C3" fill-opacity="0.51"/>
<path d="M40.0146 46.2451H34.2139C33.7688 46.2451 33.4082 46.6057 33.4082 47.0508C33.4082 47.4958 33.7688 47.8564 34.2139 47.8564H40.0146C40.4597 47.8564 40.8203 47.4958 40.8203 47.0508C40.8203 46.6057 40.4597 46.2451 40.0146 46.2451Z" fill="#0C35C3" fill-opacity="0.51"/>
<path d="M39.7461 36.3086C39.7461 35.8635 39.3855 35.5029 38.9404 35.5029H34.4287C33.9837 35.5029 33.623 35.8635 33.623 36.3086C33.623 36.7536 33.9837 37.1143 34.4287 37.1143H38.9404C39.3855 37.1143 39.7461 36.7536 39.7461 36.3086Z" fill="#0C35C3" fill-opacity="0.51"/>
<path d="M39.3164 42.4854H42.7002C43.1452 42.4854 43.5059 42.1247 43.5059 41.6797C43.5059 41.2346 43.1452 40.874 42.7002 40.874H39.3164C38.8714 40.874 38.5107 41.2346 38.5107 41.6797C38.5107 42.1247 38.8714 42.4854 39.3164 42.4854Z" fill="#0C35C3" fill-opacity="0.51"/>
<path d="M34.8584 40.874C34.4133 40.874 34.0527 41.2346 34.0527 41.6797C34.0527 42.1247 34.4133 42.4854 34.8584 42.4854H35.8789C36.324 42.4854 36.6846 42.1247 36.6846 41.6797C36.6846 41.2346 36.324 40.874 35.8789 40.874H34.8584Z" fill="#0C35C3" fill-opacity="0.51"/>
</g>
<defs>
<clipPath id="clip0">
<rect width="55" height="55" fill="white"/>
</clipPath>
</defs>
</svg>
