<svg width="31" height="31" viewBox="0 0 31 31" fill="none" xmlns="http://www.w3.org/2000/svg">
<path d="M15.5 4.84375C11.3268 4.84375 7.93164 8.23892 7.93164 12.4121C7.93164 16.5853 11.3268 19.9805 15.5 19.9805C16.2048 19.9805 16.9032 19.8834 17.5757 19.692C18.2189 19.5089 18.5919 18.839 18.4089 18.1958C18.2257 17.5526 17.5559 17.1795 16.9126 17.3627C16.4559 17.4927 15.9806 17.5586 15.5 17.5586C12.6622 17.5586 10.3535 15.2499 10.3535 12.4121C10.3535 9.57434 12.6622 7.26562 15.5 7.26562C18.3378 7.26562 20.6465 9.57434 20.6465 12.4121C20.6465 12.917 20.5738 13.4154 20.4305 13.8933C20.2384 14.5339 20.602 15.2089 21.2426 15.401C21.8832 15.593 22.5581 15.2296 22.7503 14.589C22.9613 13.8852 23.0684 13.1528 23.0684 12.4121C23.0684 8.23892 19.6732 4.84375 15.5 4.84375Z" fill="black"/>
<path d="M24.2717 3.63063C21.9279 1.28941 18.8126 0 15.4998 0C12.1869 0 9.07174 1.28941 6.72797 3.63069C4.38444 5.9718 3.09171 9.08524 3.08789 12.4002C3.09025 14.8133 3.76051 17.0772 5.13686 19.3216C6.32872 21.265 7.87709 22.9606 9.51633 24.7559C11.1237 26.516 12.7856 28.3362 14.1129 30.4361C14.3348 30.7871 14.7212 31 15.1365 31H15.8631C16.2784 31 16.6648 30.7871 16.8867 30.436C18.214 28.3361 19.876 26.516 21.4833 24.7558C23.1225 22.9606 24.6709 21.265 25.8628 19.3215C27.2392 17.0772 27.9094 14.8132 27.9117 12.3975C27.908 9.08518 26.6152 5.97174 24.2717 3.63063ZM19.6949 23.1228C18.2657 24.6879 16.7952 26.2983 15.4998 28.1504C14.2045 26.2983 12.7339 24.6879 11.3048 23.1228C8.19756 19.72 5.514 16.7812 5.50977 12.4004C5.51606 6.89823 9.99762 2.42188 15.4998 2.42188C21.002 2.42188 25.4836 6.89823 25.4899 12.3978C25.4856 16.7812 22.8021 19.7199 19.6949 23.1228Z" fill="black"/>
</svg>
