<svg width="51" height="51" viewBox="0 0 51 51" fill="none" xmlns="http://www.w3.org/2000/svg">
<g clip-path="url(#clip0)">
<path d="M50.2514 49.5029H45.4109V19.911C45.4109 19.4976 45.0758 19.1624 44.6624 19.1624H36.6781C36.2646 19.1624 35.9295 19.4976 35.9295 19.911V49.5029H30.2407V28.6937C30.2407 28.2804 29.9056 27.9452 29.4921 27.9452H21.5079C21.0944 27.9452 20.7593 28.2804 20.7593 28.6937V49.5029H15.0705V32.6859C15.0705 32.2725 14.7354 31.9373 14.3219 31.9373H6.33765C5.92417 31.9373 5.58908 32.2725 5.58908 32.6859V49.5028H0.748564C0.335086 49.5028 0 49.838 0 50.2514C0 50.6648 0.335086 51 0.748564 51H50.2514C50.6649 51 51 50.6648 51 50.2514C50.9999 49.838 50.6649 49.5029 50.2514 49.5029ZM13.5734 49.5029H7.08611V33.4344H13.5734V49.5029ZM28.7437 49.5029H22.2564V29.4423H28.7437V49.5029ZM43.9139 49.5029H37.4266V20.6595H43.9139V49.5029Z" fill="#0C35C3"/>
<path d="M48.6102 0.587239C48.1056 0.141886 47.4342 -0.0656008 46.7668 0.0182703L40.3793 0.816739C39.1113 0.975218 38.1843 2.16545 38.343 3.43477C38.5033 4.71744 39.6768 5.63156 40.9612 5.47119L41.4823 5.40614C33.6426 14.4961 24.3224 19.1939 17.7364 21.5548C9.52455 24.4988 3.13292 24.7506 3.07066 24.7527C1.77943 24.793 0.760623 25.8765 0.79967 27.1679C0.838318 28.4433 1.86758 29.4423 3.14308 29.4423C3.16679 29.4423 3.19059 29.442 3.215 29.4412C3.49918 29.4326 10.2747 29.1934 19.2012 26.0126C24.2193 24.2244 28.9412 21.8507 33.2355 18.9573C33.5783 18.7264 33.669 18.261 33.4379 17.9183C33.207 17.5753 32.7418 17.4848 32.3988 17.7158C28.2085 20.5393 23.599 22.8563 18.6987 24.6025C9.99152 27.705 3.444 27.9365 3.17017 27.9448L3.14308 27.9452C2.68209 27.9452 2.30995 27.5839 2.296 27.1226C2.28186 26.6554 2.65041 26.2635 3.11778 26.2489C3.18312 26.2468 9.75714 26.0056 18.2417 22.964C25.3497 20.4159 35.563 15.213 43.8538 4.89704C44.2666 4.38345 43.8302 3.60361 43.1777 3.68539L40.7759 3.98561C40.3595 4.03711 39.9551 3.76428 39.8494 3.35767C39.7223 2.86839 40.0642 2.36477 40.5652 2.30201L46.9529 1.50355C47.4516 1.44049 47.9062 1.84361 47.9062 2.34534V8.7328C47.9062 9.20056 47.5257 9.58117 47.0578 9.58117C46.59 9.58117 46.2095 9.20066 46.2095 8.7328V6.79639C46.2095 6.49049 46.0116 6.20441 45.7256 6.09633C45.43 5.98467 45.0808 6.0784 44.881 6.32305C42.0852 9.74871 38.9019 12.8486 35.4193 15.5364C35.0921 15.789 35.0314 16.2591 35.284 16.5864C35.5366 16.9137 36.0069 16.9742 36.334 16.7217C39.3676 14.3803 42.1796 11.7346 44.7148 8.83848C44.7702 10.0829 45.8 11.0784 47.0579 11.0784C48.3512 11.0784 49.4033 10.0262 49.4033 8.733V2.34554C49.4032 1.67318 49.1142 1.03219 48.6102 0.587239Z" fill="#0C35C3" fill-opacity="0.51"/>
</g>
<defs>
<clipPath id="clip0">
<rect width="51" height="51" fill="white"/>
</clipPath>
</defs>
</svg>
