<svg width="17" height="17" viewBox="0 0 17 17" fill="none" xmlns="http://www.w3.org/2000/svg">
<g clip-path="url(#clip0)">
<path d="M16.9983 13.6985C16.9746 13.0409 16.7007 12.4273 16.2271 11.9705C15.2997 11.0763 14.5226 10.56 13.7817 10.3459C12.7609 10.0509 11.8153 10.3192 10.9714 11.1434C10.9701 11.1446 10.9689 11.1458 10.9676 11.1471L10.0698 12.0382C9.5087 11.7219 8.41765 11.0274 7.23887 9.84866L7.15148 9.76134C5.9725 8.5824 5.27806 7.49114 4.96207 6.93067L5.85324 6.03283C5.8545 6.03156 5.85576 6.0303 5.85702 6.02901C6.68116 5.18518 6.94944 4.23963 6.65443 3.21866C6.4403 2.4778 5.92409 1.70078 5.0298 0.773385C4.57312 0.299809 3.9595 0.0258834 3.30191 0.00217636C2.64392 -0.0215639 2.01253 0.207471 1.52285 0.647014L1.5038 0.664147C1.49496 0.672083 1.48633 0.680284 1.4779 0.688684C0.503087 1.66349 -0.0079094 3.02818 9.25563e-05 4.63524C0.013739 7.36527 1.51416 10.4873 4.01365 12.9868C4.48497 13.4581 5.02064 13.9245 5.60574 14.3732C5.89677 14.5963 6.3136 14.5413 6.53676 14.2502C6.75995 13.9592 6.7049 13.5423 6.41384 13.3192C5.87479 12.9058 5.38321 12.4781 4.95277 12.0477C2.69509 9.79003 1.3401 7.01657 1.32818 4.62863C1.32204 3.39095 1.69435 2.3579 2.40499 1.63985L2.41007 1.63527C2.89275 1.202 3.62352 1.22837 4.07382 1.6953C5.79304 3.47824 5.66856 4.31998 4.90887 5.09899L3.6779 6.33919C3.48486 6.5337 3.4311 6.82681 3.54257 7.07716C3.57381 7.14736 4.32981 8.8179 6.2126 10.7007L6.30002 10.788C8.18257 12.6706 9.85315 13.4265 9.92334 13.4578C10.1736 13.5693 10.4668 13.5155 10.6613 13.3225L11.9015 12.0915C12.6806 11.3317 13.5224 11.2073 15.3052 12.9266C15.7721 13.3768 15.7985 14.1076 15.3653 14.5902L15.3606 14.5954C14.6484 15.3003 13.6264 15.6723 12.4022 15.6723C12.3921 15.6723 12.382 15.6723 12.3719 15.6722C11.3933 15.6673 10.2602 15.3991 9.09509 14.8965C8.75841 14.7512 8.36758 14.9065 8.22235 15.2433C8.07708 15.5801 8.23231 15.9708 8.56909 16.1161C9.91587 16.697 11.1931 16.9945 12.3653 17.0004C12.3777 17.0004 12.3901 17.0004 12.4025 17.0004C13.9934 17.0004 15.3445 16.4898 16.3118 15.5225C16.3202 15.5141 16.3284 15.5055 16.3363 15.4966L16.3536 15.4775C16.7931 14.9878 17.0221 14.3561 16.9983 13.6985Z" fill="#1F1E1E" fill-opacity="0.5"/>
</g>
<defs>
<clipPath id="clip0">
<rect width="17" height="17" fill="white"/>
</clipPath>
</defs>
</svg>
