<svg width="29" height="29" viewBox="0 0 29 29" fill="none" xmlns="http://www.w3.org/2000/svg">
<g clip-path="url(#clip0)">
<path d="M28.9972 23.3676C28.9567 22.2459 28.4894 21.199 27.6815 20.42C26.0994 18.8944 24.7739 18.0138 23.51 17.6486C21.7686 17.1453 20.1555 17.6029 18.7159 19.0089C18.7138 19.011 18.7116 19.0131 18.7095 19.0153L17.1779 20.5354C16.2207 19.9958 14.3595 18.8111 12.3487 16.8003L12.1996 16.6513C10.1884 14.6402 9.00375 12.7786 8.4647 11.8225L9.98494 10.2909C9.98709 10.2888 9.98924 10.2866 9.99139 10.2844C11.3973 8.84493 11.8549 7.23192 11.3517 5.49028C10.9864 4.22646 10.1058 2.90095 8.58025 1.31892C7.80121 0.51106 6.75444 0.0437746 5.63267 0.00333316C4.51022 -0.0371649 3.43315 0.353542 2.59781 1.10335L2.5653 1.13258C2.55023 1.14611 2.53551 1.1601 2.52112 1.17443C0.858207 2.83735 -0.0134925 5.16533 0.00015789 7.90679C0.0234372 12.5639 2.58297 17.8897 6.84682 22.1535C7.65083 22.9575 8.56462 23.7532 9.56274 24.5185C10.0592 24.8991 10.7703 24.8054 11.1509 24.3088C11.5317 23.8123 11.4378 23.1013 10.9413 22.7206C10.0217 22.0155 9.18313 21.2857 8.44884 20.5516C4.59751 16.7002 2.28606 11.9691 2.26573 7.89552C2.25525 5.78419 2.89036 4.02193 4.10264 2.79702L4.1113 2.7892C4.93469 2.0501 6.18129 2.09507 6.94945 2.89161C9.88225 5.9331 9.6699 7.36899 8.37396 8.69789L6.27407 10.8135C5.94476 11.1453 5.85306 11.6454 6.0432 12.0724C6.0965 12.1922 7.38615 15.0419 10.598 18.2537L10.7471 18.4026C13.9585 21.6141 16.8083 22.9037 16.9281 22.957C17.355 23.1473 17.8552 23.0555 18.1869 22.7262L20.3026 20.6262C21.6317 19.3302 23.0676 19.118 26.1089 22.0508C26.9054 22.8188 26.9504 24.0655 26.2115 24.8888L26.2034 24.8977C24.9885 26.1001 23.245 26.7347 21.1567 26.7347C21.1395 26.7347 21.1222 26.7347 21.105 26.7346C19.4357 26.7263 17.5027 26.2687 15.5152 25.4113C14.9408 25.1635 14.2741 25.4283 14.0264 26.0028C13.7786 26.5774 14.0434 27.2439 14.6179 27.4917C16.9153 28.4827 19.0941 28.9902 21.0937 29.0002C21.1149 29.0003 21.136 29.0003 21.1572 29.0003C23.8711 29.0003 26.176 28.1292 27.8261 26.4793C27.8404 26.4649 27.8543 26.4502 27.8679 26.4351L27.8973 26.4024C28.647 25.5671 29.0377 24.4894 28.9972 23.3676Z" fill="black"/>
</g>
<defs>
<clipPath id="clip0">
<rect width="29" height="29" fill="white"/>
</clipPath>
</defs>
</svg>
