<svg width="21" height="21" viewBox="0 0 21 21" fill="none" xmlns="http://www.w3.org/2000/svg">
<g clip-path="url(#clip0)">
<path d="M20.998 16.9215C20.9687 16.1092 20.6303 15.3512 20.0452 14.787C18.8996 13.6823 17.9398 13.0446 17.0246 12.7802C15.7635 12.4157 14.5954 12.7471 13.553 13.7652C13.5514 13.7667 13.5498 13.7683 13.5483 13.7698L12.4392 14.8706C11.7461 14.4799 10.3983 13.622 8.9422 12.1659L8.83424 12.058C7.37786 10.6017 6.52002 9.25363 6.12967 8.56129L7.23053 7.45219C7.23209 7.45063 7.23365 7.44907 7.23521 7.44747C8.25326 6.4051 8.58466 5.23706 8.22024 3.97587C7.95573 3.06068 7.31806 2.10084 6.21334 0.955229C5.64922 0.370223 4.89121 0.0318446 4.07889 0.00255942C3.26609 -0.0267668 2.48613 0.256159 1.88123 0.799124L1.85769 0.820288C1.84678 0.830091 1.83612 0.840222 1.8257 0.850598C0.621521 2.05478 -0.0097094 3.74056 0.000175369 5.72576C0.0170328 9.09814 1.87049 12.9548 4.9581 16.0423C5.54032 16.6245 6.20202 17.2007 6.9248 17.7549C7.2843 18.0306 7.79921 17.9626 8.07488 17.6031C8.35059 17.2436 8.28258 16.7286 7.92304 16.453C7.25715 15.9424 6.64991 15.4139 6.11819 14.8823C3.32929 12.0934 1.65548 8.6674 1.64076 5.71759C1.63317 4.1887 2.09308 2.91258 2.97094 2.02557L2.97721 2.01991C3.57346 1.4847 4.47617 1.51727 5.03242 2.09407C7.15617 4.29653 7.0024 5.33631 6.06397 6.29862L4.54335 7.83064C4.30489 8.07091 4.23848 8.43299 4.37617 8.74225C4.41477 8.82896 5.34865 10.8926 7.67444 13.2184L7.78244 13.3262C10.1079 15.6517 12.1716 16.5856 12.2583 16.6242C12.5675 16.762 12.9297 16.6955 13.1699 16.457L14.7019 14.9364C15.6644 13.9979 16.7042 13.8442 18.9065 15.968C19.4833 16.5241 19.5159 17.4269 18.9808 18.0231L18.9749 18.0295C18.0952 18.9002 16.8327 19.3598 15.3204 19.3598C15.3079 19.3598 15.2955 19.3598 15.283 19.3597C14.0742 19.3536 12.6745 19.0223 11.2352 18.4015C10.8193 18.222 10.3365 18.4138 10.1571 18.8298C9.97764 19.2458 10.1694 19.7285 10.5854 19.9079C12.2491 20.6255 13.8268 20.993 15.2748 21.0003C15.2902 21.0003 15.3054 21.0004 15.3208 21.0004C17.286 21.0004 18.9551 20.3696 20.15 19.1748C20.1603 19.1644 20.1704 19.1537 20.1802 19.1428L20.2015 19.1191C20.7444 18.5143 21.0273 17.7338 20.998 16.9215Z" fill="#1F1E1E" fill-opacity="0.5"/>
</g>
<defs>
<clipPath id="clip0">
<rect width="21" height="21" fill="white"/>
</clipPath>
</defs>
</svg>
