<svg width="54" height="54" viewBox="0 0 54 54" fill="none" xmlns="http://www.w3.org/2000/svg">
<path d="M51.8443 21.5569H48.7186C48.1796 19.1856 46.024 17.3533 43.5449 17.3533C41.0659 17.3533 38.8024 19.1856 38.3713 21.5569H35.2455C34.5988 21.5569 34.1677 21.988 34.1677 22.6347V32.7665C34.1677 37.9401 38.2635 42.1437 43.4371 42.1437V44.4072C43.4371 48.503 40.0958 51.8443 36 51.8443C31.9042 51.8443 28.5629 48.503 28.5629 44.4072V2.15569H34.491C35.1377 2.15569 35.5689 1.72455 35.5689 1.07784C35.5689 0.431138 35.1377 0 34.491 0H20.479C19.8323 0 19.4012 0.431138 19.4012 1.07784C19.4012 1.72455 19.8323 2.15569 20.479 2.15569H26.4072V44.4072C26.4072 48.503 23.0659 51.8443 18.9701 51.8443C14.8743 51.8443 11.5329 48.503 11.5329 44.4072V42.0359C16.1677 41.497 19.8323 37.509 19.8323 32.6587V22.6347C19.8323 21.988 19.4012 21.5569 18.7545 21.5569H15.6287C15.0898 19.1856 12.9341 17.3533 10.4551 17.3533C7.86827 17.3533 5.71258 19.1856 5.28144 21.5569H2.15569C1.50899 21.5569 1.07785 21.988 1.07785 22.6347V32.7665C1.07785 37.509 4.74252 41.497 9.37725 42.0359V44.4072C9.37725 49.6886 13.6886 54 18.9701 54C22.6347 54 25.8683 51.9521 27.485 48.8264C29.1018 51.8443 32.2276 54 36 54C41.2814 54 45.5928 49.6886 45.5928 44.4072V41.9281C49.7964 40.9581 52.9222 37.2934 52.9222 32.7665V22.6347C52.9222 21.988 52.491 21.5569 51.8443 21.5569ZM10.4551 19.4012C11.8563 19.4012 13.0419 20.2635 13.4731 21.4491H7.54492C7.97605 20.2635 9.0539 19.4012 10.4551 19.4012ZM3.23354 23.7126H6.2515H14.7665H17.7844V25.8683H3.23354V23.7126ZM3.23354 32.6587V28.024H17.6767V32.6587C17.6767 36.6467 14.4431 39.8802 10.4551 39.8802C6.46707 39.8802 3.23354 36.6467 3.23354 32.6587ZM43.4371 19.4012C44.8383 19.4012 46.024 20.2635 46.4551 21.4491H40.527C40.8503 20.2635 42.0359 19.4012 43.4371 19.4012ZM50.6587 32.6587C50.6587 36.6467 47.4252 39.8802 43.4371 39.8802C39.4491 39.988 36.2156 36.6467 36.2156 32.6587V28.024H50.6587V32.6587ZM50.6587 25.8683H36.2156V23.7126H39.1258H47.6407H50.6587V25.8683Z" fill="#393939"/>
</svg>
