<svg width="55" height="55" viewBox="0 0 55 55" fill="none" xmlns="http://www.w3.org/2000/svg">
<path d="M47.1695 18.4576V8.0791C47.1695 2.11299 43.0057 0 39.0904 0H15.8475C11.9322 0 7.76838 2.11299 7.76838 8.0791V18.4576C4.90963 19.2034 2.79663 21.7514 2.79663 24.8588V41.5141C2.79663 46.4237 6.09042 48.3503 9.32205 48.5367V52.7627C9.32205 54.0056 10.3164 55 11.5593 55H13.8588C15.1017 55 16.0961 54.0056 16.0961 52.7627V48.5367H38.904V52.7627C38.904 54.0056 39.8983 55 41.1413 55H43.4407C44.6836 55 45.678 54.0056 45.678 52.7627V48.5367C50.4633 48.2881 52.2034 44.8079 52.2034 41.5141V24.7966C52.0791 21.7514 49.9661 19.1412 47.1695 18.4576ZM10.0057 8.0791C10.0057 2.98305 13.6723 2.17514 15.8475 2.17514H39.0904C41.2656 2.17514 44.9322 2.9209 44.9322 8.01695V18.209C41.5763 18.5198 38.904 21.3164 38.904 24.7966V26.3503H16.0339V24.7966C16.0339 21.3164 13.3616 18.5198 10.0057 18.209V8.0791ZM38.8418 28.5876V36.2938H16.0339V28.5876H38.8418ZM13.8588 52.7627H11.5593V48.5367H13.8588V52.7627ZM43.3786 52.7627H41.0791V48.5367H43.3786V52.7627ZM49.9661 41.5141H49.904C49.904 43.6893 49.0961 46.3616 45.0565 46.3616H43.3786H41.0791H13.8588H11.5593H9.88138C7.70623 46.3616 5.03392 45.5537 5.03392 41.5141V24.7966C5.03392 22.3729 7.02262 20.3842 9.44635 20.3842C11.8701 20.3842 13.8588 22.3729 13.8588 24.7966V37.4124C13.8588 38.0339 14.356 38.5311 14.9774 38.5311H40.0226C40.6441 38.5311 41.1413 38.0339 41.1413 37.4124V24.7966C41.1413 22.3729 43.13 20.3842 45.5537 20.3842C47.9774 20.3842 49.9661 22.3729 49.9661 24.7966V41.5141Z" fill="#393939"/>
</svg>
