<svg width="59" height="59" viewBox="0 0 59 59" fill="none" xmlns="http://www.w3.org/2000/svg">
<path d="M48.59 29.9249H35.7217C35.2968 27.3148 33.1723 25.251 30.5622 24.7654V17.4815H38.5746C38.8781 17.4815 39.2423 17.3601 39.4244 17.0566C39.6065 16.8138 39.7279 16.4496 39.6065 16.1461L36.0252 0.849794C35.9038 0.364197 35.4789 0 34.9933 0H23.946C23.4604 0 23.0355 0.364197 22.9141 0.849794L19.2721 16.1461C19.2114 16.4496 19.2721 16.8138 19.4542 17.0566C19.6363 17.2994 20.0005 17.4815 20.304 17.4815H28.3771V24.7654C25.767 25.1903 23.7032 27.2541 23.2176 29.9249H10.41C9.07459 29.9249 7.98199 31.0175 7.98199 32.3529V50.927C7.98199 52.2623 9.07459 53.3549 10.41 53.3549H11.624V56.9969C11.624 58.0895 12.5952 59 13.8092 59H16.055C17.269 59 18.2402 58.0895 18.2402 56.9969V53.3549H40.7598V56.9969C40.7598 58.0895 41.731 59 42.945 59H45.1908C46.4048 59 47.376 58.0895 47.376 56.9969V53.3549H48.59C49.9254 53.3549 51.018 52.2623 51.018 50.927V32.3529C51.018 31.0175 49.9254 29.9249 48.59 29.9249ZM21.7001 15.2963L24.7958 2.18519H34.1435L37.2392 15.2963H21.7001ZM29.4697 26.8292C31.412 26.8292 32.9902 28.1039 33.4758 29.9249H25.4635C25.9491 28.1646 27.5273 26.8292 29.4697 26.8292ZM10.1672 32.3529C10.1672 32.2315 10.2886 32.1101 10.41 32.1101H48.4686C48.6507 32.0494 48.7721 32.1708 48.7721 32.3529V40.5473H10.1672V32.3529ZM16.055 56.8148H13.8092V53.3549H16.055V56.8148ZM45.1301 56.8148H42.8843V53.3549H45.1301V56.8148ZM48.8328 50.8663C48.7721 51.0484 48.6507 51.1698 48.5293 51.1698H45.1908H42.945H16.055H13.8092H10.4707C10.3493 51.1698 10.2279 51.0484 10.2279 50.927V42.6718H48.8328V50.8663Z" fill="#393939"/>
<path d="M34.7505 35.2058H24.2495C23.6425 35.2058 23.1569 35.6914 23.1569 36.2984C23.1569 36.9054 23.6425 37.391 24.2495 37.391H34.7505C35.3575 37.391 35.8431 36.9054 35.8431 36.2984C35.8431 35.6914 35.3575 35.2058 34.7505 35.2058Z" fill="#393939"/>
<path d="M34.6898 46.071H24.2495C23.6425 46.071 23.1569 46.5566 23.1569 47.1636C23.1569 47.7706 23.6425 48.2562 24.2495 48.2562H34.7505C35.3575 48.2562 35.8431 47.7706 35.8431 47.1636C35.7824 46.5566 35.2968 46.071 34.6898 46.071Z" fill="#393939"/>
</svg>
