<svg width="21" height="21" viewBox="0 0 21 21" fill="none" xmlns="http://www.w3.org/2000/svg">
<path d="M8.65573 17.2954C3.88738 17.2954 0.00805664 13.416 0.00805664 8.64768C0.00805664 3.87932 3.88738 0 8.65573 0C13.4241 0 17.3034 3.87932 17.3034 8.64768C17.3034 13.416 13.4241 17.2954 8.65573 17.2954ZM8.65573 1.63937C4.79133 1.63937 1.64743 4.78327 1.64743 8.64768C1.64743 12.5121 4.79133 15.656 8.65573 15.656C12.5201 15.656 15.664 12.5121 15.664 8.64768C15.664 4.78327 12.5201 1.63937 8.65573 1.63937ZM20.7519 20.7599C21.072 20.4398 21.072 19.9208 20.7519 19.6007L17.0839 15.9326C16.7637 15.6125 16.2447 15.6125 15.9246 15.9326C15.6045 16.2527 15.6045 16.7717 15.9246 17.0918L19.5927 20.7599C19.7527 20.92 19.9625 21 20.1723 21C20.3821 21 20.5919 20.92 20.7519 20.7599Z" fill="white"/>
</svg>
