<svg width="51" height="51" viewBox="0 0 51 51" fill="none" xmlns="http://www.w3.org/2000/svg">
<path d="M43.7385 17.1153V7.49153C43.7385 1.95932 39.8775 0 36.247 0H14.6945C11.064 0 7.20294 1.95932 7.20294 7.49153V17.1153C4.5521 17.8068 2.59277 20.1695 2.59277 23.0508V38.4949C2.59277 43.0475 5.64701 44.8339 8.64362 45.0068V48.9254C8.64362 50.078 9.56565 51 10.7182 51H12.8504C14.0029 51 14.925 50.078 14.925 48.9254V45.0068H36.0741V48.9254C36.0741 50.078 36.9962 51 38.1487 51H40.2809C41.4335 51 42.3555 50.078 42.3555 48.9254V45.0068C46.7928 44.7763 48.4063 41.5492 48.4063 38.4949V22.9932C48.2911 20.1695 46.3318 17.7492 43.7385 17.1153ZM9.27752 7.49153C9.27752 2.7661 12.6775 2.01695 14.6945 2.01695H36.247C38.264 2.01695 41.664 2.70847 41.664 7.4339V16.8847C38.5521 17.1729 36.0741 19.7661 36.0741 22.9932V24.4339H14.8673V22.9932C14.8673 19.7661 12.3894 17.1729 9.27752 16.8847V7.49153ZM36.0165 26.5085V33.6542H14.8673V26.5085H36.0165ZM12.8504 48.9254H10.7182V45.0068H12.8504V48.9254ZM40.2233 48.9254H38.0911V45.0068H40.2233V48.9254ZM46.3318 38.4949H46.2741C46.2741 40.5119 45.525 42.9898 41.7792 42.9898H40.2233H38.0911H12.8504H10.7182H9.16226C7.14532 42.9898 4.66735 42.2407 4.66735 38.4949V22.9932C4.66735 20.7458 6.51142 18.9017 8.75887 18.9017C11.0063 18.9017 12.8504 20.7458 12.8504 22.9932V34.6915C12.8504 35.2678 13.3114 35.7288 13.8877 35.7288H37.1114C37.6877 35.7288 38.1487 35.2678 38.1487 34.6915V22.9932C38.1487 20.7458 39.9928 18.9017 42.2402 18.9017C44.4877 18.9017 46.3318 20.7458 46.3318 22.9932V38.4949Z" fill="#393939"/>
</svg>
