<svg width="59" height="59" viewBox="0 0 59 59" fill="none" xmlns="http://www.w3.org/2000/svg">
<path d="M48.5904 29.9249H35.7221C35.2972 27.3148 33.1727 25.251 30.5627 24.7654V17.4815H38.575C38.8785 17.4815 39.2427 17.3601 39.4248 17.0566C39.6069 16.8138 39.7283 16.4496 39.6069 16.1461L36.0256 0.849794C35.9042 0.364197 35.4793 0 34.9937 0H23.9464C23.4608 0 23.0359 0.364197 22.9145 0.849794L19.2725 16.1461C19.2118 16.4496 19.2725 16.8138 19.4546 17.0566C19.6367 17.2994 20.0009 17.4815 20.3044 17.4815H28.3775V24.7654C25.7674 25.1903 23.7036 27.2541 23.218 29.9249H10.4104C9.07501 29.9249 7.98242 31.0175 7.98242 32.3529V50.927C7.98242 52.2623 9.07501 53.3549 10.4104 53.3549H11.6244V56.9969C11.6244 58.0895 12.5956 59 13.8096 59H16.0555C17.2695 59 18.2407 58.0895 18.2407 56.9969V53.3549H40.7602V56.9969C40.7602 58.0895 41.7314 59 42.9454 59H45.1913C46.4053 59 47.3765 58.0895 47.3765 56.9969V53.3549H48.5904C49.9258 53.3549 51.0184 52.2623 51.0184 50.927V32.3529C51.0184 31.0175 49.9258 29.9249 48.5904 29.9249ZM21.7005 15.2963L24.7962 2.18519H34.1439L37.2396 15.2963H21.7005ZM29.4701 26.8292C31.4125 26.8292 32.9907 28.1039 33.4762 29.9249H25.4639C25.9495 28.1646 27.5277 26.8292 29.4701 26.8292ZM10.1676 32.3529C10.1676 32.2315 10.289 32.1101 10.4104 32.1101H48.469C48.6511 32.0494 48.7725 32.1708 48.7725 32.3529V40.5473H10.1676V32.3529ZM16.0555 56.8148H13.8096V53.3549H16.0555V56.8148ZM45.1306 56.8148H42.8847V53.3549H45.1306V56.8148ZM48.8332 50.8663C48.7725 51.0484 48.6511 51.1698 48.5297 51.1698H45.1913H42.9454H16.0555H13.8096H10.4711C10.3497 51.1698 10.2283 51.0484 10.2283 50.927V42.6718H48.8332V50.8663Z" fill="#393939"/>
<path d="M34.7508 35.2057H24.2498C23.6428 35.2057 23.1572 35.6913 23.1572 36.2983C23.1572 36.9053 23.6428 37.3909 24.2498 37.3909H34.7508C35.3578 37.3909 35.8434 36.9053 35.8434 36.2983C35.8434 35.6913 35.3578 35.2057 34.7508 35.2057Z" fill="#393939"/>
<path d="M34.6901 46.071H24.2498C23.6428 46.071 23.1572 46.5566 23.1572 47.1636C23.1572 47.7706 23.6428 48.2562 24.2498 48.2562H34.7508C35.3578 48.2562 35.8434 47.7706 35.8434 47.1636C35.7827 46.5566 35.2971 46.071 34.6901 46.071Z" fill="#393939"/>
</svg>
