<svg width="49" height="49" viewBox="0 0 49 49" fill="none" xmlns="http://www.w3.org/2000/svg">
<path d="M47.0444 19.5609H44.2081C43.719 17.4092 41.763 15.7465 39.5135 15.7465C37.264 15.7465 35.2101 17.4092 34.8188 19.5609H31.9825C31.3957 19.5609 31.0045 19.9521 31.0045 20.5389V29.7325C31.0045 34.4271 34.721 38.2415 39.4156 38.2415V40.2954C39.4156 44.012 36.3837 47.0439 32.6671 47.0439C28.9506 47.0439 25.9186 44.012 25.9186 40.2954V1.95609H31.2979C31.8847 1.95609 32.2759 1.56487 32.2759 0.978044C32.2759 0.391218 31.8847 0 31.2979 0H18.5833C17.9965 0 17.6053 0.391218 17.6053 0.978044C17.6053 1.56487 17.9965 1.95609 18.5833 1.95609H23.9625V40.2954C23.9625 44.012 20.9306 47.0439 17.214 47.0439C13.4975 47.0439 10.4655 44.012 10.4655 40.2954V38.1437C14.6711 37.6547 17.9965 34.0359 17.9965 29.6347V20.5389C17.9965 19.9521 17.6053 19.5609 17.0184 19.5609H14.1821C13.6931 17.4092 11.737 15.7465 9.4875 15.7465C7.14019 15.7465 5.1841 17.4092 4.79289 19.5609H1.95656C1.36973 19.5609 0.978516 19.9521 0.978516 20.5389V29.7325C0.978516 34.0359 4.30386 37.6547 8.50945 38.1437V40.2954C8.50945 45.0878 12.4216 49 17.214 49C20.5394 49 23.4735 47.1417 24.9406 44.3054C26.4077 47.0439 29.244 49 32.6671 49C37.4596 49 41.3717 45.0878 41.3717 40.2954V38.0459C45.1861 37.1657 48.0224 33.8403 48.0224 29.7325V20.5389C48.0224 19.9521 47.6312 19.5609 47.0444 19.5609ZM9.4875 17.6048C10.759 17.6048 11.8348 18.3872 12.226 19.4631H6.84678C7.238 18.3872 8.21604 17.6048 9.4875 17.6048ZM2.9346 21.517H5.67313H13.3997H16.1382V23.4731H2.9346V21.517ZM2.9346 29.6347V25.4291H16.0404V29.6347C16.0404 33.2535 13.1063 36.1876 9.4875 36.1876C5.86874 36.1876 2.9346 33.2535 2.9346 29.6347ZM39.4156 17.6048C40.6871 17.6048 41.7629 18.3872 42.1542 19.4631H36.7749C37.0683 18.3872 38.1442 17.6048 39.4156 17.6048ZM45.9685 29.6347C45.9685 33.2535 43.0344 36.1876 39.4156 36.1876C35.7969 36.2854 32.8627 33.2535 32.8627 29.6347V25.4291H45.9685V29.6347ZM45.9685 23.4731H32.8627V21.517H35.5035H43.23H45.9685V23.4731Z" fill="#393939"/>
</svg>
