<svg width="55" height="55" viewBox="0 0 55 55" fill="none" xmlns="http://www.w3.org/2000/svg">
<g clip-path="url(#clip0)">
<path d="M39.7449 22.9719C38.9366 23.112 38.1329 23.2328 37.3447 23.3381L36.6421 16.0027C41.3549 12.9896 42.753 7.70041 43.1272 4.07822C43.2438 2.91166 42.7731 1.76313 41.8717 1.01394C40.7823 0.101158 39.3154 -0.220581 37.9441 0.152334C34.5522 1.03072 31.0722 1.52277 27.57 1.61967C24.0678 1.52277 20.5874 1.03072 17.1959 0.152334C15.8242 -0.220581 14.3565 0.102836 13.2684 1.01772C12.3669 1.76564 11.8954 2.9125 12.0104 4.07822C12.3841 7.69957 13.7814 12.9879 18.4925 16.001L17.7954 23.3394C17.0072 23.2328 16.2034 23.112 15.3951 22.9727C14.0029 22.7211 12.5901 23.2911 11.7629 24.4388C10.9604 25.5328 10.856 26.9901 11.4936 28.1877C12.6467 30.1479 14.3741 31.7063 16.4417 32.653L12.3585 52.2057C12.1073 53.4163 12.8506 54.611 14.0473 54.9214C15.2441 55.2318 16.474 54.5485 16.8432 53.3685L20.118 43.0749H35.0229L38.2969 53.3647C38.6631 54.5497 39.8964 55.2373 41.0969 54.9248C42.297 54.6127 43.0395 53.4113 42.7815 52.1982L38.7021 32.6484C40.7697 31.7021 42.4971 30.1433 43.6503 28.1831C44.2879 26.9855 44.183 25.5286 43.381 24.4342C42.5517 23.2869 41.1372 22.7181 39.7449 22.9719ZM35.5296 23.5609C34.8996 23.6301 34.2917 23.6909 33.7061 23.7442L33.1222 17.5917C33.7284 17.4143 34.3219 17.1974 34.9 16.9432L35.5296 23.5609ZM27.57 18.3329C28.8268 18.3375 30.0814 18.2301 31.3189 18.0124L31.8751 23.8818C29.3323 24.0504 27.6019 24.0558 27.5684 24.0558C27.5344 24.0558 25.8061 24.0504 23.2612 23.8818L23.8174 18.0124C25.0565 18.2306 26.312 18.3379 27.57 18.3329ZM13.8338 3.8903C13.7847 3.32191 14.0217 2.76652 14.466 2.4087C14.9098 2.03579 15.4719 1.8336 16.0512 1.83863C16.2819 1.84031 16.5113 1.87093 16.7341 1.93008C20.2753 2.85377 23.9113 3.36469 27.57 3.45236C31.2287 3.36469 34.8647 2.85377 38.406 1.93008C39.1971 1.71069 40.0453 1.89107 40.6787 2.41332C41.1212 2.77155 41.3566 3.32652 41.3062 3.89407C40.7127 9.64343 37.846 16.5002 27.57 16.5002C24.89 16.5925 22.2343 15.9666 19.8781 14.6868C19.8651 14.6805 19.855 14.6704 19.8424 14.6642C15.7039 12.2366 14.2386 7.80948 13.8338 3.8903ZM20.2439 16.9394C20.8215 17.1936 21.4155 17.4105 22.0216 17.5879L21.4377 23.7396C20.8517 23.6884 20.2439 23.6271 19.6142 23.5562L20.2439 16.9394ZM15.0948 52.8169C15.031 53.0187 14.8431 53.1558 14.6308 53.155C14.4861 53.1558 14.3489 53.0908 14.2579 52.978C14.1631 52.8655 14.1245 52.7162 14.1526 52.5719L18.1469 33.4257C19.0655 33.7978 20.0031 34.1216 20.9557 34.396L15.0948 52.8169ZM32.4049 34.8486L33.2724 37.5769H21.8677L22.7351 34.8486C25.9232 35.5231 29.2169 35.5231 32.4049 34.8486ZM20.6973 41.2422L21.28 39.4095H33.8563L34.439 41.2422H20.6973ZM40.9858 52.5648C41.016 52.7112 40.9778 52.8634 40.8821 52.978C40.7911 53.0908 40.6539 53.1558 40.5092 53.155C40.2957 53.1558 40.107 53.017 40.0444 52.8131L34.1843 34.3943C35.137 34.1199 36.0745 33.7961 36.9932 33.4236L40.9858 52.5648ZM42.0265 27.3244C40.818 29.608 37.8443 31.4709 33.4301 32.7126C29.5978 33.7911 25.5423 33.7911 21.7099 32.7126C17.2958 31.4709 14.3221 29.608 13.1136 27.3244C12.8002 26.7459 12.8518 26.0379 13.2466 25.511C13.6623 24.9304 14.3775 24.6444 15.0792 24.7778C19.2082 25.467 23.3841 25.8382 27.57 25.8885C31.7552 25.8382 35.9298 25.4665 40.0583 24.7778C40.7597 24.6444 41.4749 24.9304 41.891 25.511C42.2861 26.037 42.339 26.7451 42.0265 27.3244Z" fill="black"/>
</g>
<defs>
<clipPath id="clip0">
<rect width="55" height="55" fill="white"/>
</clipPath>
</defs>
</svg>
