<svg width="55" height="55" viewBox="0 0 55 55" fill="none" xmlns="http://www.w3.org/2000/svg">
<g clip-path="url(#clip0)">
<path d="M39.7449 22.9718C38.9366 23.112 38.1329 23.2328 37.3447 23.3381L36.6421 16.0026C41.3549 12.9895 42.753 7.70035 43.1272 4.07816C43.2438 2.9116 42.7731 1.76307 41.8717 1.01388C40.7823 0.101097 39.3154 -0.220642 37.9441 0.152273C34.5522 1.03066 31.0722 1.52271 27.57 1.61961C24.0678 1.52271 20.5874 1.03066 17.1959 0.152273C15.8242 -0.220642 14.3565 0.102775 13.2684 1.01766C12.3669 1.76558 11.8954 2.91243 12.0104 4.07816C12.3841 7.69951 13.7814 12.9879 18.4925 16.001L17.7954 23.3393C17.0072 23.2328 16.2034 23.112 15.3951 22.9727C14.0029 22.721 12.5901 23.2911 11.7629 24.4388C10.9604 25.5328 10.856 26.99 11.4936 28.1876C12.6467 30.1478 14.3741 31.7062 16.4417 32.653L12.3585 52.2056C12.1073 53.4163 12.8506 54.6109 14.0473 54.9213C15.2441 55.2318 16.474 54.5484 16.8432 53.3684L20.118 43.0749H35.0229L38.2969 53.3647C38.6631 54.5497 39.8964 55.2372 41.0969 54.9247C42.297 54.6126 43.0395 53.4112 42.7815 52.1981L38.7021 32.6483C40.7697 31.702 42.4971 30.1432 43.6503 28.183C44.2879 26.9854 44.183 25.5286 43.381 24.4341C42.5517 23.2869 41.1372 22.7181 39.7449 22.9718ZM35.5296 23.5608C34.8996 23.63 34.2917 23.6908 33.7061 23.7441L33.1222 17.5916C33.7284 17.4142 34.3219 17.1973 34.9 16.9431L35.5296 23.5608ZM27.57 18.3328C28.8268 18.3375 30.0814 18.2301 31.3189 18.0124L31.8751 23.8817C29.3323 24.0503 27.6019 24.0558 27.5684 24.0558C27.5344 24.0558 25.8061 24.0503 23.2612 23.8817L23.8174 18.0124C25.0565 18.2305 26.312 18.3379 27.57 18.3328ZM13.8338 3.89024C13.7847 3.32184 14.0217 2.76646 14.466 2.40864C14.9098 2.03573 15.4719 1.83354 16.0512 1.83857C16.2819 1.84025 16.5113 1.87087 16.7341 1.93002C20.2753 2.85371 23.9113 3.36463 27.57 3.4523C31.2287 3.36463 34.8647 2.85371 38.406 1.93002C39.1971 1.71063 40.0453 1.89101 40.6787 2.41326C41.1212 2.77149 41.3566 3.32646 41.3062 3.89401C40.7127 9.64337 37.846 16.5001 27.57 16.5001C24.89 16.5924 22.2343 15.9666 19.8781 14.6867C19.8651 14.6805 19.855 14.6704 19.8424 14.6641C15.7039 12.2366 14.2386 7.80941 13.8338 3.89024ZM20.2439 16.9393C20.8215 17.1935 21.4155 17.4104 22.0216 17.5879L21.4377 23.7395C20.8517 23.6883 20.2439 23.6271 19.6142 23.5562L20.2439 16.9393ZM15.0948 52.8168C15.031 53.0186 14.8431 53.1558 14.6308 53.1549C14.4861 53.1558 14.3489 53.0907 14.2579 52.9779C14.1631 52.8655 14.1245 52.7162 14.1526 52.5718L18.1469 33.4256C19.0655 33.7977 20.0031 34.1216 20.9557 34.3959L15.0948 52.8168ZM32.4049 34.8485L33.2724 37.5768H21.8677L22.7351 34.8485C25.9232 35.523 29.2169 35.523 32.4049 34.8485ZM20.6973 41.2422L21.28 39.4095H33.8563L34.439 41.2422H20.6973ZM40.9858 52.5647C41.016 52.7111 40.9778 52.8634 40.8821 52.9779C40.7911 53.0907 40.6539 53.1558 40.5092 53.1549C40.2957 53.1558 40.107 53.0169 40.0444 52.813L34.1843 34.3942C35.137 34.1199 36.0745 33.796 36.9932 33.4235L40.9858 52.5647ZM42.0265 27.3243C40.818 29.608 37.8443 31.4709 33.4301 32.7125C29.5978 33.791 25.5423 33.791 21.7099 32.7125C17.2958 31.4709 14.3221 29.608 13.1136 27.3243C12.8002 26.7459 12.8518 26.0378 13.2466 25.5109C13.6623 24.9304 14.3775 24.6443 15.0792 24.7777C19.2082 25.4669 23.3841 25.8381 27.57 25.8885C31.7552 25.8381 35.9298 25.4665 40.0583 24.7777C40.7597 24.6443 41.4749 24.9304 41.891 25.5109C42.2861 26.037 42.339 26.745 42.0265 27.3243Z" fill="black"/>
</g>
<defs>
<clipPath id="clip0">
<rect width="55" height="55" fill="white"/>
</clipPath>
</defs>
</svg>
