<svg width="29" height="29" viewBox="0 0 29 29" fill="none" xmlns="http://www.w3.org/2000/svg">
<path d="M24.7531 4.24691C22.0143 1.50828 18.3731 0 14.5 0C10.6269 0 6.98566 1.50828 4.24691 4.24691C1.50828 6.98566 0 10.6269 0 14.5C0 18.3731 1.50828 22.0143 4.24691 24.7531C6.98566 27.4917 10.6269 29 14.5 29C17.1515 29 19.7459 28.2774 22.0027 26.9104C22.5378 26.5862 22.7089 25.8896 22.3847 25.3546C22.0606 24.8194 21.3639 24.6484 20.8289 24.9725C18.9261 26.1251 16.7376 26.7344 14.5 26.7344C7.75393 26.7344 2.26562 21.2461 2.26562 14.5C2.26562 7.75393 7.75393 2.26562 14.5 2.26562C21.2461 2.26562 26.7344 7.75393 26.7344 14.5C26.7344 16.9123 26.017 19.2603 24.6598 21.2904C24.3121 21.8104 24.4518 22.514 24.9719 22.8617C25.4921 23.2094 26.1956 23.0696 26.5433 22.5495C28.1504 20.1456 29 17.3621 29 14.5C29 10.6269 27.4917 6.98566 24.7531 4.24691Z" fill="black"/>
<path d="M14.5004 4.30469C13.8747 4.30469 13.3676 4.81185 13.3676 5.4375V14.0308L9.21365 18.1847C8.77123 18.6271 8.77123 19.3443 9.21365 19.7867C9.43483 20.0079 9.72472 20.1185 10.0147 20.1185C10.3046 20.1185 10.5945 20.0079 10.8157 19.7867L15.3014 15.301C15.5138 15.0886 15.6332 14.8004 15.6332 14.5V5.4375C15.6332 4.81185 15.126 4.30469 14.5004 4.30469Z" fill="black"/>
</svg>
