<svg width="29" height="29" viewBox="0 0 29 29" fill="none" xmlns="http://www.w3.org/2000/svg">
<path d="M14.5914 0.565186C18.4753 0.565186 22.0002 2.12823 24.5507 4.65893C27.0931 7.18947 28.6765 10.6796 28.6765 14.5412C28.6765 18.403 27.0931 21.8931 24.5507 24.4235C22.0002 26.9543 18.4753 28.5176 14.5914 28.5176C10.6997 28.5176 7.17438 26.9543 4.62429 24.4235C2.0815 21.8931 0.498474 18.403 0.498474 14.5412C0.498474 10.6796 2.0815 7.18947 4.62429 4.65893C7.17438 2.12823 10.6997 0.565186 14.5914 0.565186ZM23.7707 5.43287C21.4233 3.09573 18.171 1.65635 14.5914 1.65635C11.0038 1.65635 7.75146 3.09573 5.40392 5.43287C3.05654 7.76226 1.60595 10.9815 1.60595 14.5412C1.60595 18.1011 3.05654 21.3206 5.40392 23.6497C7.75146 25.9868 11.0036 27.4262 14.5914 27.4262C18.171 27.4262 21.4233 25.9868 23.7707 23.6497C26.1184 21.3206 27.5768 18.1011 27.5768 14.5412C27.5768 10.9815 26.1184 7.76226 23.7707 5.43287Z" fill="#C4C4C4"/>
<path fill-rule="evenodd" clip-rule="evenodd" d="M20.8149 13.1094C21.7821 12.885 21.7821 12.1653 21.7821 12.1653H19.3879C17.9373 10.7337 16.5098 10.2539 14.5836 10.2539C12.6649 10.2539 11.2376 10.7337 9.787 12.1653H7.39293C7.39293 12.1653 7.39293 12.885 8.35983 13.1094C8.17256 13.3648 7.98546 13.6745 7.81382 14.0225C7.57222 14.4947 7.39276 15.0363 7.39276 15.5008C7.39276 17.4584 8.78088 18.8203 10.7542 18.8203C11.8693 18.8203 12.9692 18.2012 13.632 17.4043L14.5834 18.8203L15.5427 17.4043C16.2055 18.2012 17.3052 18.8203 18.4203 18.8203C20.3935 18.8203 21.7818 17.4584 21.7818 15.5008C21.7818 15.0594 21.6103 14.5486 21.3838 14.0845C21.2127 13.7208 21.0099 13.3727 20.8149 13.1094ZM10.7544 17.8765C9.42858 17.8765 8.35999 16.8009 8.35999 15.501C8.35999 14.7966 8.67205 14.162 9.15541 13.7361C9.57647 13.3495 10.1383 13.1094 10.7544 13.1094C11.1286 13.1094 11.4717 13.21 11.7992 13.3493C12.595 13.744 13.1485 14.5564 13.1485 15.5008C13.1485 16.8009 12.0802 17.8765 10.7544 17.8765ZM14.5836 16.9245C14.5836 15.5475 13.9519 14.1851 13.0391 13.272C12.3763 12.5986 11.5573 12.1655 10.7542 12.1655C10.7542 12.1655 12.1892 10.7337 14.5836 10.7337C16.9777 10.7337 18.4206 12.1655 18.4206 12.1655C17.6019 12.1655 16.7829 12.5986 16.1201 13.2797C15.223 14.2006 14.5836 15.5628 14.5836 16.9245ZM18.4206 15.021C18.1556 15.021 17.9373 15.2299 17.9373 15.4931C17.9373 15.7562 18.1556 15.9653 18.4206 15.9653C18.6858 15.9653 18.9042 15.7562 18.9042 15.4931C18.9042 15.2299 18.6858 15.021 18.4206 15.021ZM18.4206 14.0692C17.6254 14.0692 16.9777 14.7112 16.9777 15.501C16.9777 16.2902 17.6254 16.9245 18.4206 16.9245C19.2162 16.9245 19.8558 16.2902 19.8558 15.501C19.8558 14.7114 19.2162 14.0692 18.4206 14.0692ZM18.4206 16.4451C17.8904 16.4451 17.4614 16.0193 17.4614 15.501C17.4614 14.9745 17.8904 14.5488 18.4206 14.5488C18.951 14.5488 19.3879 14.9745 19.3879 15.501C19.3879 16.0193 18.951 16.4451 18.4206 16.4451ZM10.7544 15.021C10.4892 15.021 10.2709 15.2299 10.2709 15.4931C10.2709 15.7562 10.4894 15.9653 10.7544 15.9653C11.0193 15.9653 11.2378 15.7562 11.2378 15.4931C11.2378 15.2299 11.0193 15.021 10.7544 15.021ZM10.7544 14.0692C9.95881 14.0692 9.31144 14.7112 9.31144 15.501C9.31144 16.2902 9.95881 16.9245 10.7544 16.9245C11.5496 16.9245 12.1894 16.2902 12.1894 15.501C12.1894 14.7114 11.5496 14.0692 10.7544 14.0692ZM10.7544 16.4451C10.224 16.4451 9.787 16.0193 9.787 15.501C9.787 14.9745 10.224 14.5488 10.7544 14.5488C11.2846 14.5488 11.7136 14.9745 11.7136 15.501C11.7135 16.0193 11.2845 16.4451 10.7544 16.4451ZM18.4206 17.8765C17.0948 17.8765 16.0264 16.8009 16.0264 15.501C16.0264 14.5721 16.5568 13.7674 17.3366 13.3727C17.6641 13.2102 18.023 13.1096 18.4206 13.1096C19.076 13.1096 19.6531 13.3727 20.0821 13.7829C20.542 14.2242 20.815 14.8199 20.815 15.5011C20.8149 16.8009 19.7464 17.8765 18.4206 17.8765Z" fill="#C4C4C4"/>
</svg>
