<svg width="50" height="50" viewBox="0 0 50 50" fill="none" xmlns="http://www.w3.org/2000/svg">
<path d="M23.0488 40.2302C27.4048 40.2373 31.5999 38.5853 34.7814 35.61L43.1408 43.9693C43.2513 44.0761 43.3993 44.1351 43.553 44.1338C43.7066 44.1325 43.8535 44.0708 43.9622 43.9622C44.0708 43.8536 44.1325 43.7066 44.1338 43.553C44.1351 43.3994 44.0761 43.2513 43.9693 43.1408L35.61 34.7815C41.9017 28.0512 41.7669 17.4572 35.2035 10.8942C33.2054 8.89337 30.7446 7.41641 28.0391 6.59417C25.3337 5.77193 22.4672 5.6298 19.6937 6.18039C16.9201 6.73097 14.3253 7.95726 12.1391 9.75057C9.95283 11.5439 8.24277 13.8488 7.16042 16.4611C6.07808 19.0734 5.65689 21.9124 5.93417 24.7264C6.21146 27.5404 7.17866 30.2425 8.75005 32.5933C10.3214 34.9441 12.4485 36.871 14.9427 38.2031C17.4369 39.5352 20.2212 40.2314 23.0488 40.2301V40.2302ZM11.7227 11.7227C14.7266 8.7188 18.8007 7.03124 23.0489 7.03124C27.297 7.03124 31.3711 8.7188 34.375 11.7227C40.6201 17.9679 40.6201 28.1297 34.375 34.375C28.1299 40.6203 17.9679 40.62 11.7226 34.375C10.2353 32.8876 9.05541 31.1219 8.25045 29.1785C7.44548 27.2352 7.03117 25.1523 7.03117 23.0488C7.03117 20.9454 7.44548 18.8625 8.25045 16.9192C9.05541 14.9758 10.2353 13.21 11.7226 11.7227H11.7227Z" fill="#1F1E1E" fill-opacity="0.56"/>
<path d="M17.1895 23.6348H22.4629V28.9082C22.4629 29.0636 22.5246 29.2126 22.6345 29.3225C22.7444 29.4324 22.8934 29.4941 23.0488 29.4941C23.2042 29.4941 23.3533 29.4324 23.4631 29.3225C23.573 29.2126 23.6348 29.0636 23.6348 28.9082V23.6348H28.9082C29.0636 23.6348 29.2126 23.573 29.3225 23.4631C29.4324 23.3533 29.4941 23.2042 29.4941 23.0488C29.4941 22.8934 29.4324 22.7444 29.3225 22.6345C29.2126 22.5246 29.0636 22.4629 28.9082 22.4629H23.6348V17.1895C23.6348 17.0341 23.573 16.885 23.4631 16.7751C23.3533 16.6652 23.2042 16.6035 23.0488 16.6035C22.8934 16.6035 22.7444 16.6652 22.6345 16.7751C22.5246 16.885 22.4629 17.0341 22.4629 17.1895V22.4629H17.1895C17.0341 22.4629 16.885 22.5246 16.7751 22.6345C16.6652 22.7444 16.6035 22.8934 16.6035 23.0488C16.6035 23.2042 16.6652 23.3533 16.7751 23.4631C16.885 23.573 17.0341 23.6348 17.1895 23.6348Z" fill="#1F1E1E" fill-opacity="0.56"/>
</svg>
