<?xml version="1.0" encoding="iso-8859-1"?>
<!-- Generator: Adobe Illustrator 21.1.0, SVG Export Plug-In . SVG Version: 6.00 Build 0)  -->
<svg version="1.1" id="Capa_1" xmlns="http://www.w3.org/2000/svg" xmlns:xlink="http://www.w3.org/1999/xlink" x="0px" y="0px"
	 viewBox="0 0 799.92 799.92" style="enable-background:new 0 0 799.92 799.92;" xml:space="preserve">
<g>
	<path style="fill-rule:evenodd;clip-rule:evenodd;fill:#FAB14A;" d="M265.62,272.598c-32.665,0-59.145,26.479-59.145,59.145
		c0,28.18,19.71,51.755,46.095,57.697c3.37,0.759,3.146,3.254,3.54,6.776l9.51,84.95l9.374-83.739
		c0.381-3.402,0.254-7.23,3.462-7.94c26.493-5.862,46.308-29.488,46.308-57.745C324.764,299.078,298.284,272.598,265.62,272.598z"/>
	<path style="fill-rule:evenodd;clip-rule:evenodd;fill:#FAB14A;" d="M265.619,481.166l9.375-83.739
		c0.381-3.402,0.254-7.23,3.462-7.94c26.493-5.861,46.309-29.488,46.309-57.745c0-32.665-26.48-59.144-59.146-59.144V481.166z"/>
	<path style="fill-rule:evenodd;clip-rule:evenodd;fill:#FFFFFF;" d="M265.62,380.291c26.74,0,48.549-21.809,48.549-48.548
		c0-26.74-21.809-48.549-48.549-48.549c-26.74,0-48.549,21.81-48.549,48.549C217.071,358.482,238.88,380.291,265.62,380.291z"/>
</g>
</svg>
